<svg xmlns="http://www.w3.org/2000/svg" xmlns:xlink="http://www.w3.org/1999/xlink" viewBox="0 0 461 456" width="461" height="456" preserveAspectRatio="xMidYMid meet" style="width: 100%; height: 100%; transform: translate3d(0px, 0px, 0px); content-visibility: visible;"><defs><clipPath id="__lottie_element_2"><rect width="461" height="456" x="0" y="0"></rect></clipPath></defs><g style="display: block;" transform="matrix(0.7200000286102295,0,0,0.7200000286102295,-51.8599853515625,151.04000854492188)" opacity="1"><g opacity="1" transform="matrix(1,0,0,1,0,-20)"><g opacity="1" transform="matrix(1,0,0,1,0,0)"><path fill="rgb(159,164,165)" fill-opacity="1" d=" M332.1390075683594,-46.20899963378906 C331.1709899902344,-46.20899963378906 330.385009765625,-46.994998931884766 330.385009765625,-47.9630012512207 C330.385009765625,-47.9630012512207 330.385009765625,-56.88800048828125 330.385009765625,-56.88800048828125 C330.385009765625,-60.90399932861328 327.1189880371094,-64.16999816894531 323.1029968261719,-64.16999816894531 C323.1029968261719,-64.16999816894531 312.8349914550781,-64.16999816894531 312.8349914550781,-64.16999816894531 C311.86700439453125,-64.16999816894531 311.08099365234375,-64.95500183105469 311.08099365234375,-65.92400360107422 C311.08099365234375,-66.89299774169922 311.86700439453125,-67.6780014038086 312.8349914550781,-67.6780014038086 C312.8349914550781,-67.6780014038086 323.1029968261719,-67.6780014038086 323.1029968261719,-67.6780014038086 C329.0530090332031,-67.6780014038086 333.89300537109375,-62.8380012512207 333.89300537109375,-56.88800048828125 C333.89300537109375,-56.88800048828125 333.89300537109375,-47.9630012512207 333.89300537109375,-47.9630012512207 C333.89300537109375,-46.994998931884766 333.10699462890625,-46.20899963378906 332.1390075683594,-46.20899963378906z"></path></g></g><g opacity="1" transform="matrix(1,0,0,1,0,-20)"><g opacity="1" transform="matrix(1,0,0,1,0,0)"><path fill="rgb(159,164,165)" fill-opacity="1" d=" M189.70799255371094,-46.20899963378906 C188.74000549316406,-46.20899963378906 187.9550018310547,-46.994998931884766 187.9550018310547,-47.9630012512207 C187.9550018310547,-47.9630012512207 187.9550018310547,-56.88800048828125 187.9550018310547,-56.88800048828125 C187.9550018310547,-62.8380012512207 192.7949981689453,-67.6780014038086 198.7449951171875,-67.6780014038086 C198.7449951171875,-67.6780014038086 209.01300048828125,-67.6780014038086 209.01300048828125,-67.6780014038086 C209.9810028076172,-67.6780014038086 210.76600646972656,-66.89299774169922 210.76600646972656,-65.92400360107422 C210.76600646972656,-64.95500183105469 209.9810028076172,-64.16999816894531 209.01300048828125,-64.16999816894531 C209.01300048828125,-64.16999816894531 198.7449951171875,-64.16999816894531 198.7449951171875,-64.16999816894531 C194.72900390625,-64.16999816894531 191.46200561523438,-60.90399932861328 191.46200561523438,-56.88800048828125 C191.46200561523438,-56.88800048828125 191.46200561523438,-47.9630012512207 191.46200561523438,-47.9630012512207 C191.46200561523438,-46.994998931884766 190.67599487304688,-46.20899963378906 189.70799255371094,-46.20899963378906z"></path></g></g><g opacity="1" transform="matrix(1,0,0,1,0,30)"><g opacity="1" transform="matrix(1,0,0,1,0,0)"><path fill="rgb(159,164,165)" fill-opacity="1" d=" M209.01300048828125,37.32500076293945 C209.01300048828125,37.32500076293945 198.7449951171875,37.32500076293945 198.7449951171875,37.32500076293945 C192.7949981689453,37.32500076293945 187.9550018310547,32.48500061035156 187.9550018310547,26.53499984741211 C187.9550018310547,26.53499984741211 187.9550018310547,17.608999252319336 187.9550018310547,17.608999252319336 C187.9550018310547,16.641000747680664 188.74000549316406,15.855999946594238 189.70799255371094,15.855999946594238 C190.67599487304688,15.855999946594238 191.46200561523438,16.641000747680664 191.46200561523438,17.608999252319336 C191.46200561523438,17.608999252319336 191.46200561523438,26.53499984741211 191.46200561523438,26.53499984741211 C191.46200561523438,30.551000595092773 194.72900390625,33.81700134277344 198.7449951171875,33.81700134277344 C198.7449951171875,33.81700134277344 209.01300048828125,33.81700134277344 209.01300048828125,33.81700134277344 C209.9810028076172,33.81700134277344 210.76600646972656,34.60300064086914 210.76600646972656,35.57099914550781 C210.76600646972656,36.53900146484375 209.9810028076172,37.32500076293945 209.01300048828125,37.32500076293945z"></path></g></g><g opacity="1" transform="matrix(1,0,0,1,0,30)"><g opacity="1" transform="matrix(1,0,0,1,0,0)"><path fill="rgb(159,164,165)" fill-opacity="1" d=" M323.1029968261719,37.32500076293945 C323.1029968261719,37.32500076293945 312.8349914550781,37.32500076293945 312.8349914550781,37.32500076293945 C311.86700439453125,37.32500076293945 311.08099365234375,36.53900146484375 311.08099365234375,35.57099914550781 C311.08099365234375,34.60300064086914 311.86700439453125,33.81700134277344 312.8349914550781,33.81700134277344 C312.8349914550781,33.81700134277344 323.1029968261719,33.81700134277344 323.1029968261719,33.81700134277344 C327.1189880371094,33.81700134277344 330.385009765625,30.551000595092773 330.385009765625,26.53499984741211 C330.385009765625,26.53499984741211 330.385009765625,17.608999252319336 330.385009765625,17.608999252319336 C330.385009765625,16.641000747680664 331.1709899902344,15.855999946594238 332.1390075683594,15.855999946594238 C333.10699462890625,15.855999946594238 333.89300537109375,16.641000747680664 333.89300537109375,17.608999252319336 C333.89300537109375,17.608999252319336 333.89300537109375,26.53499984741211 333.89300537109375,26.53499984741211 C333.89300537109375,32.48500061035156 329.0530090332031,37.32500076293945 323.1029968261719,37.32500076293945z"></path></g></g></g> </svg>